<?xml version="1.0" encoding="utf-8"?>
<!-- Generator: Adobe Illustrator 23.0.5, SVG Export Plug-In . SVG Version: 6.00 Build 0)  -->
<svg version="1.1" id="Слой_1" xmlns="http://www.w3.org/2000/svg" xmlns:xlink="http://www.w3.org/1999/xlink" x="0px" y="0px"
	 viewBox="0 0 143 47" style="enable-background:new 0 0 143 47;" xml:space="preserve">
<style type="text/css">
	.st0{fill:#020000;}
</style>
<g id="Слой_x0020_1">
	<g id="_879291200">
		<path class="st0" d="M140.5,0L140.5,0c-1.4,0-2.5,1.1-2.5,2.5c0,1.4,1.1,2.4,2.5,2.4c1.4,0,2.5-1.1,2.5-2.4
			C143,1.1,141.9,0,140.5,0z"/>
		<path class="st0" d="M0,18.7L0,18.7h3.4v1.4h0c0.8-0.8,2.2-1.5,3.5-1.5c2.1,0,4,1,5.3,2.4c1.3-1.4,3.2-2.4,5.3-2.4
			c3.9,0,7,3.1,7,7v12.3h-3.4V25.6c0-2-1.6-3.5-3.6-3.5c-2,0-3.5,1.5-3.5,3.4v12.4h-3.4V25.4C10.5,23.5,8.9,22,7,22
			c-2,0-3.5,1.5-3.6,3.4v12.4H0V18.7z"/>
		<path class="st0" d="M37.9,34.8L37.9,34.8c3.6,0,6.3-2.9,6.3-6.5c0-3.6-2.7-6.5-6.3-6.5c-3.6,0-6.5,2.9-6.5,6.5
			C31.4,31.9,34.3,34.8,37.9,34.8z M47.5,37.8L47.5,37.8h-3.4v-2.5h0c-1.4,1.5-3.7,2.7-6.1,2.7c-5.4,0-9.8-4.4-9.8-9.8
			s4.4-9.8,9.8-9.8c2.4,0,4.7,1.3,6.1,2.7h0v-2.6h3.4V37.8z"/>
		<path class="st0" d="M64.3,22.4L64.3,22.4c-0.7-0.3-1.6-0.5-2.4-0.5c-3.5,0-6.1,2.8-6.1,6.3v9.6h-3.4V18.7h3.4v2.5h0.1
			c1.4-1.5,3.7-2.7,6.1-2.7c1.3,0,2.5,0.3,3.7,0.7L64.3,22.4z"/>
		<polygon class="st0" points="68.3,18.7 68.3,18.7 71.8,18.7 71.8,37.8 68.3,37.8 		"/>
		<polygon class="st0" points="76.8,7.8 76.8,7.8 80.2,7.8 80.2,37.8 76.8,37.8 		"/>
		<polygon class="st0" points="90.2,33.3 90.2,33.3 83.5,18.7 87.2,18.7 92.2,29.2 97.2,18.7 100.8,18.7 87.4,47 83.7,47 		"/>
		<path class="st0" d="M117,26.4L117,26.4c-0.1-2.5-2.1-4.5-4.7-4.5c-2.6,0-4.6,2-4.6,4.5v11.4h-3.4V18.7h3.4V21h0.1
			c0.7-1,2.7-2.4,4.6-2.4c4.5,0,8.1,3.7,8.1,8.1v11.2H117V26.4z"/>
	</g>
</g>
</svg>
